PathFileType	4	(X/Y/Z)	C:/Users/opensim2020/Desktop/walking_exp_matlab/subject06_walking14_straight_04.trc																																																																																																																																					
DataRate	CameraRate	NumFrames	NumMarkers	Units	OrigDataRate	OrigDataStartFrame	OrigNumFrames																																																																																																																																	
100	100	9	45	mm	100	3030	227																																																																																																																																	
Frame#	Time	LFHD			RFHD			LBHD			RBHD			C7			T10			CLAV			STRN			RBAK			LSHO			LUPA			LELB			LFRM			LWRA			LWRB			LFIN			RSHO			RUPA			RELB			RFRM			RWRA			RWRB			RFIN			LASI			RASI			LPSI			RPSI			LTHI			LKNE			LTIB			LANK			LHEE			LTOE			RTHI			RKNE			RTIB			RANK			RHEE			RTOE			*39			*40			*41			*42			*43			*44		
		X1	Y1	Z1	X2	Y2	Z2	X3	Y3	Z3	X4	Y4	Z4	X5	Y5	Z5	X6	Y6	Z6	X7	Y7	Z7	X8	Y8	Z8	X9	Y9	Z9	X10	Y10	Z10	X11	Y11	Z11	X12	Y12	Z12	X13	Y13	Z13	X14	Y14	Z14	X15	Y15	Z15	X16	Y16	Z16	X17	Y17	Z17	X18	Y18	Z18	X19	Y19	Z19	X20	Y20	Z20	X21	Y21	Z21	X22	Y22	Z22	X23	Y23	Z23	X24	Y24	Z24	X25	Y25	Z25	X26	Y26	Z26	X27	Y27	Z27	X28	Y28	Z28	X29	Y29	Z29	X30	Y30	Z30	X31	Y31	Z31	X32	Y32	Z32	X33	Y33	Z33	X34	Y34	Z34	X35	Y35	Z35	X36	Y36	Z36	X37	Y37	Z37	X38	Y38	Z38	X39	Y39	Z39	X40	Y40	Z40	X41	Y41	Z41	X42	Y42	Z42	X43	Y43	Z43	X44	Y44	Z44	X45	Y45	Z45
																																																																																																																																								
114	1.13	10.8889	1666.85071	919.78699	14.76847	1658.8291	1051.6405	-120.91096	1608.59875	924.29114	-114.81793	1606.11536	1053.53088	-115.53379	1451.31848	980.89734	-142.41574	1122.00122	992.66931	-2.66965	1377.97961	985.75262	41.44165	1203.23181	983.07379	-188.20102	1281.76855	1057.48547	-58.11667	1405.17493	822.34851	-31.53272	1205.67114	746.57489	-13.25309	1094.62964	730.69244	55.91743	961.72473	706.76782	149.91644	873.57379	748.67352	95.97446	849.22632	710.19861	163.56816	789.86304	706.354	-55.11337	1410.23499	1145.83948	-110.42902	1214.01331	1229.34021	-111.09763	1091.47913	1241.4425	-108.21275	971.32141	1260.02014	-59.04834	826.59265	1236.2323	-118.66527	833.36469	1269.50867	-92.48473	753.005	1273.97021	34.12775	964.78662	883.91693	36.6028	971.43597	1103.82446	-123.12711	990.90704	913.85461	-115.43517	989.97015	1081.88684	-49.20782	649.01599	833.64307	-64.73456	485.69086	859.24011	-120.40878	234.52249	879.58423	-138.255	64.94	927.7511	-176.51434	52.79207	974.78748	5.71604	35.23248	921.88104	70.04943	649.28827	1167.26746	118.51412	533.18243	1143.46692	25.47438	287.93747	1145.41394	-37.63004	112.17844	1106.67041	-78.79076	93.20011	1059.13086	98.95598	46.83878	1119.71948	-88.59383	1703.93481	981.03973	NaN	NaN	NaN	NaN	NaN	NaN	NaN	NaN	NaN	NaN	NaN	NaN	NaN	NaN	NaN
115	1.14	21.02169	1666.31555	920.5282	24.92168	1658.04858	1052.32385	-110.73933	1608.0863	924.8905	-104.74347	1605.3042	1054.05103	-105.62345	1450.70007	981.12299	-132.59357	1121.50073	992.77277	7.26163	1377.23047	985.83887	51.28865	1202.45532	982.64227	-178.21561	1281.17297	1057.39978	-48.19558	1404.82727	822.48016	-19.68006	1205.79663	746.35388	0.67114	1095.07678	730.18152	73.65205	964.32361	706.33075	170.98409	879.75195	748.07318	117.51316	853.23773	709.99182	187.26627	796.37006	706.12128	-45.01387	1409.27014	1145.97595	-102.50877	1213.6134	1229.0155	-104.4627	1091.14258	1241.23877	-103.66093	970.99408	1260.03491	-57.05912	825.3053	1236.75159	-116.75151	833.39587	1269.98071	-91.9007	752.44971	1274.63611	43.37227	963.6076	883.6582	46.55479	970.88971	1103.71814	-113.92714	990.38501	914.17651	-105.5747	989.60834	1082.16174	-42.53142	648.34314	834.12244	-59.99005	485.19214	859.60522	-118.1412	234.55818	879.9494	-137.87851	65.11617	928.01373	-176.29852	53.10676	974.9928	5.88456	35.17412	921.97552	80.35672	649.37213	1168.30884	128.87857	533.37567	1143.93677	46.10724	283.86325	1145.51221	-7.00699	104.99299	1106.10291	-46.85984	84.14061	1058.32153	132.2283	45.69929	1120.48096	-78.51211	1703.31238	981.81769	NaN	NaN	NaN	NaN	NaN	NaN	NaN	NaN	NaN	NaN	NaN	NaN	NaN	NaN	NaN
116	1.15	31.14937	1665.77734	921.25507	34.94742	1657.16882	1053.05054	-100.60627	1607.54871	925.46143	-94.55492	1604.40576	1054.61353	-95.511	1450.04346	981.34381	-122.64915	1120.85693	992.87872	17.34671	1376.46582	985.92828	61.09364	1201.60059	982.41296	-168.20596	1280.54944	1057.24036	-38.32047	1404.40137	822.6745	-7.9293	1205.87732	746.2984	14.20798	1095.4552	729.84595	91.08087	966.96539	705.97882	191.08835	885.95917	747.89349	138.9086	857.35803	709.77698	210.35201	803.1275	706.0213	-34.94133	1408.349	1146.18652	-94.41846	1213.20703	1228.76379	-97.7065	1090.84644	1241.11279	-98.87563	970.72186	1260.09436	-54.50216	824.07916	1237.14075	-114.15202	833.27399	1270.35229	-90.88062	752.02332	1275.43152	52.80667	962.38379	883.49683	56.46698	970.18115	1103.7135	-104.50362	989.72113	914.55072	-95.73804	989.17346	1082.50037	-35.90989	647.66272	834.2793	-55.11724	484.63791	859.9176	-115.92407	234.57922	880.12335	-137.52249	65.27478	928.172	-176.09506	53.42816	975.12305	5.99279	35.11335	922.00537	89.35435	648.83997	1168.8717	138.49641	533.04083	1144.25525	66.54199	279.93555	1145.6355	23.55488	98.17657	1105.94189	-14.78267	76.13365	1057.828	165.4426	44.83575	1121.01074	-68.39761	1702.63416	982.66052	NaN	NaN	NaN	NaN	NaN	NaN	NaN	NaN	NaN	NaN	NaN	NaN	NaN	NaN	NaN
117	1.16	41.28132	1665.1969	922.07922	45.09926	1656.25098	1053.79431	-90.41401	1606.91931	926.06226	-84.4538	1603.48315	1055.22058	-85.34971	1449.34338	981.66016	-112.68439	1120.11951	992.95758	27.40438	1375.60779	986.12781	70.94139	1200.63733	982.23987	-158.11458	1279.8717	1057.17834	-28.30716	1403.92456	822.96033	3.75019	1205.85388	746.33154	27.66022	1095.81812	729.6922	108.01878	969.64551	705.89038	211.24959	892.43469	747.57471	159.68944	861.73065	709.91461	233.00229	810.17419	706.11169	-24.86579	1407.45825	1146.45715	-86.17763	1212.93262	1228.96704	-90.91095	1090.53735	1240.96631	-93.88306	970.51392	1260.26306	-53.44085	822.79785	1237.21252	-111.3984	833.3739	1270.88208	-89.36387	751.71698	1276.26953	62.13821	960.99664	883.5686	66.33104	969.38916	1103.86108	-94.95703	989.0285	914.88232	-85.92671	988.63281	1082.84998	-28.74483	646.93475	834.93951	-50.13712	484.05338	860.24493	-113.6019	234.6613	880.2417	-137.11476	65.46037	928.23059	-175.91043	53.78193	975.16937	6.11878	35.07761	922.04962	97.62537	647.75092	1169.21033	147.51788	532.39594	1145.06213	86.79921	276.17136	1145.84802	54.24261	92.33865	1105.99792	17.50567	68.75565	1057.32275	198.41139	44.35918	1121.3938	-58.20414	1701.86755	983.50385	NaN	NaN	NaN	NaN	NaN	NaN	NaN	NaN	NaN	NaN	NaN	NaN	NaN	NaN	NaN
118	1.17	51.47512	1664.53967	922.84143	55.30476	1655.26501	1054.58264	-80.26624	1606.23767	926.72906	-74.32726	1602.52454	1055.88	-75.13326	1448.49158	981.91046	-102.72141	1119.41724	993.07227	37.53122	1374.72644	986.37988	81.05712	1199.7207	982.18823	-148.1088	1279.16736	1057.17041	-18.30587	1403.3656	823.33154	15.40148	1205.84033	746.37903	40.6809	1096.13269	729.59753	124.64187	972.40027	705.60437	230.39583	898.80902	747.78308	179.93083	866.19891	710.32117	255.02521	817.33594	706.31366	-14.77777	1406.49438	1146.72083	-77.86711	1212.44385	1228.59705	-84.04255	1090.27124	1240.94556	-88.73265	970.375	1260.49219	-49.81459	822.13245	1238.18372	-108.03954	833.50684	1271.5011	-87.3362	751.60864	1277.27454	71.92223	959.82538	883.70703	76.31371	968.51129	1103.97791	-85.30605	988.26398	915.18182	-76.03094	987.97736	1083.24939	-21.59528	646.12189	835.36627	-44.88459	483.47995	860.51855	-111.36316	234.79063	880.33374	-136.95325	65.80199	928.31146	-175.71562	54.20245	975.19092	6.23476	34.98464	922.08984	105.25289	646.3125	1169.62915	155.83559	531.18658	1145.33813	106.84457	272.63089	1146.10168	84.99057	87.17466	1106.21313	49.68558	62.38623	1057.31091	231.16907	44.38228	1121.40454	-48.03002	1701.03992	984.32275	NaN	NaN	NaN	NaN	NaN	NaN	NaN	NaN	NaN	NaN	NaN	NaN	NaN	NaN	NaN
119	1.18	61.69752	1663.68982	923.65826	65.46941	1654.17688	1055.3551	-70.00072	1605.43811	927.37732	-64.0888	1601.43762	1056.53833	-64.78354	1447.52283	982.27173	-92.64935	1118.56555	993.26416	47.91471	1373.79248	986.67194	91.16364	1198.68408	982.18677	-137.84737	1278.32251	1057.15967	-8.32373	1402.72925	823.78027	26.95313	1205.7196	746.52563	53.54167	1096.3689	729.64587	141.01239	975.05872	706.05859	249.05267	905.17126	748.13037	199.36482	870.90747	711.03516	276.436	824.5647	706.75629	-4.71506	1405.44495	1147.0188	-69.5368	1212.0116	1228.54639	-77.044	1090.00806	1240.96118	-83.59404	970.23694	1260.70593	-44.92389	821.50574	1239.59265	-104.43269	833.68518	1272.20593	-84.96468	751.26984	1278.00635	81.41506	958.4776	883.96582	86.20776	967.46124	1104.19019	-75.61468	987.46826	915.48785	-66.03242	987.15393	1083.61011	-14.27799	645.24872	835.76855	-39.40184	482.79861	860.79358	-108.93625	234.87415	880.39343	-136.53595	66.05216	928.34406	-175.48911	54.64294	975.18298	6.41075	34.89846	922.13806	112.68351	644.61584	1170.29333	163.86945	529.69598	1145.69067	126.5988	269.3215	1146.401	115.5409	82.83661	1106.74243	81.96081	56.49307	1057.53662	263.66782	44.82069	1121.01282	-37.8247	1700.12085	985.1994	NaN	NaN	NaN	NaN	NaN	NaN	NaN	NaN	NaN	NaN	NaN	NaN	NaN	NaN	NaN
120	1.19	71.92641	1662.75647	924.51306	75.68977	1653.0033	1056.15088	-59.74666	1604.52563	928.08258	-54.37709	1600.37415	1057.64429	-54.47796	1446.51868	982.65283	-82.59502	1117.6571	993.45087	58.06873	1372.65295	987.10516	101.27051	1197.52698	982.3537	-127.61253	1277.36353	1057.13733	1.75851	1402.02258	824.32538	38.41117	1205.54932	746.7475	66.257	1096.52844	729.75922	156.91507	977.73682	706.46844	267.05057	911.41675	748.73352	218.53624	875.37848	711.81854	297.034	831.7547	707.40479	5.40264	1404.39954	1147.36548	-61.42134	1211.58691	1228.79968	-70.28049	1089.7395	1241.13171	-77.81598	970.08417	1261.21509	-40.46817	820.96722	1241.15869	-100.32688	833.8576	1272.86963	-82.02668	751.20782	1279.23657	91.01169	957.05518	884.26776	96.2081	966.37805	1104.37561	-65.84897	986.5509	915.797	-55.98738	986.31433	1083.9679	-6.80179	644.30316	836.15942	-33.55457	482.01297	861.05139	-106.30492	234.89261	880.40973	-136.17566	66.35703	928.35907	-175.19629	55.16181	975.15564	6.7479	34.62716	922.24506	119.96231	642.64581	1171.16101	171.42418	527.94446	1145.95129	146.1535	266.33542	1146.87402	145.60756	79.46906	1107.6991	112.87923	52.2956	1058.33569	295.66428	46.10171	1120.27417	-27.61272	1699.08057	986.06451	NaN	NaN	NaN	NaN	NaN	NaN	NaN	NaN	NaN	NaN	NaN	NaN	NaN	NaN	NaN
121	1.2	82.2124	1661.78699	925.34924	85.84145	1651.81067	1057.02405	-49.48194	1603.46008	928.75043	-43.69321	1599.02368	1057.92615	-44.07373	1445.30627	983.14441	-72.45036	1116.63721	993.72687	68.46167	1371.55627	987.53931	111.59625	1196.34265	982.54254	-117.23721	1276.31946	1057.18506	11.90818	1401.23694	824.89465	49.82029	1205.29883	747.03479	78.75139	1096.59033	729.96979	172.42033	980.26105	706.9942	284.52481	917.51892	749.4906	237.2706	879.7829	712.97266	317.19415	838.97095	708.43121	15.51741	1403.28979	1147.80554	-53.13413	1211.13696	1228.81458	-63.14415	1089.44861	1241.31299	-72.111	969.93195	1261.6864	-35.47321	820.34351	1242.53699	-96.0087	834.05072	1273.59009	-78.63143	751.10706	1280.44604	100.56789	955.65564	884.57581	106.24976	965.22937	1104.6062	-55.99084	985.50256	916.28613	-45.75841	985.42725	1084.32043	0.79523	643.26752	836.63733	-27.47428	481.14383	861.37146	-103.33814	234.95804	880.48425	-135.62292	66.7151	928.34363	-175.48805	56.14485	975.34912	6.91482	34.5771	922.34802	127.14429	640.61572	1172.03979	178.79225	526.0329	1146.27991	165.34987	263.82513	1147.41907	174.56683	77.0414	1108.23145	142.29564	49.3625	1059.3551	326.70593	48.56161	1118.87427	-17.4189	1697.94177	986.8808	NaN	NaN	NaN	NaN	NaN	NaN	NaN	NaN	NaN	NaN	NaN	NaN	NaN	NaN	NaN
122	1.21	92.42935	1660.74377	926.26331	96.11636	1650.56299	1057.88208	-39.17977	1602.27502	929.47766	-33.92003	1597.71436	1059.14038	-33.63876	1444.12317	983.6936	-62.44329	1115.55688	994.01147	78.80219	1370.31519	988.09888	121.91482	1195.13477	982.81335	-106.94482	1275.16956	1057.30701	22.13216	1400.37964	825.56189	61.0175	1204.79358	747.56104	90.96238	1096.54321	730.31317	187.66171	982.67432	707.25824	301.33588	923.4693	750.40485	255.33348	884.19904	713.8692	336.46225	845.93243	709.35376	25.65386	1402.13599	1148.29199	-44.5641	1210.495	1228.59912	-55.89321	1089.06775	1241.52966	-66.15816	969.73199	1262.24353	-30.51491	819.69672	1244.33447	-91.13951	833.96606	1274.19031	-74.68526	750.99628	1281.68945	110.0962	954.16486	884.875	116.61626	964.02045	1104.7157	-46.35316	984.22418	916.48651	-35.61972	984.46277	1084.65601	8.56031	642.17865	837.16016	-21.0511	480.25586	861.74396	-100.21317	234.95267	880.57471	-135.03264	67.11008	928.34253	-175.14761	56.83932	975.28625	7.1385	34.46427	922.44684	134.69421	638.6087	1172.97314	186.09921	524.00848	1146.75537	183.71671	261.79587	1148.0011	202.22754	75.49839	1109.14026	171.13731	46.5354	1060.51123	356.30933	52.44723	1117.19092	-7.02842	1696.62219	987.77118	NaN	NaN	NaN	NaN	NaN	NaN	NaN	NaN	NaN	NaN	NaN	NaN	NaN	NaN	NaN
